<?xml version="1.0" encoding="utf-8"?>
<!-- Generator: Adobe Illustrator 26.5.0, SVG Export Plug-In . SVG Version: 6.00 Build 0)  -->
<svg version="1.1" id="圖層_1" xmlns="http://www.w3.org/2000/svg" xmlns:xlink="http://www.w3.org/1999/xlink" x="0px" y="0px"
	 viewBox="0 0 32 32" style="enable-background:new 0 0 32 32;" xml:space="preserve">
<g>
	<path d="M31,0H19c-0.6,0-0.7,0.3-0.3,0.7L23,5L12.7,15.3c-0.4,0.4-0.4,1,0,1.4l2.6,2.6c0.4,0.4,1,0.4,1.4,0L27.2,9.2l4.1,4.1
		c0.4,0.4,0.7,0.3,0.7-0.3V1C32,0.4,31.6,0,31,0z"/>
	<path d="M24,32H6c-3.3,0-6-2.7-6-6V8c0-3.3,2.7-6,6-6h6.8c1.1,0,2,0.9,2,2s-0.9,2-2,2H6C4.9,6,4,6.9,4,8v18c0,1.1,0.9,2,2,2h18
		c1.1,0,2-0.9,2-2v-6.7c0-1.1,0.9-2,2-2c1.1,0,2,0.9,2,2V26C30,29.3,27.3,32,24,32z"/>
</g>
</svg>
