<?xml version="1.0" encoding="utf-8"?>
<!-- Generator: Adobe Illustrator 26.5.0, SVG Export Plug-In . SVG Version: 6.00 Build 0)  -->
<svg version="1.1" id="圖層_1" xmlns="http://www.w3.org/2000/svg" xmlns:xlink="http://www.w3.org/1999/xlink" x="0px" y="0px"
	 viewBox="0 0 32 32" style="enable-background:new 0 0 32 32;" xml:space="preserve">
<path d="M25.9,0h-20c-2.2,0-4,1.8-4,4v24c0,2.2,1.8,4,4,4h20c2.2,0,4-1.8,4-4V4C29.9,1.8,28.1,0,25.9,0z M19.9,25c0,0.6-0.4,1-1,1
	h-10c-0.6,0-1-0.4-1-1v-2c0-0.6,0.4-1,1-1h10c0.6,0,1,0.4,1,1V25z M23.9,17c0,0.6-0.4,1-1,1h-14c-0.6,0-1-0.4-1-1v-2
	c0-0.6,0.4-1,1-1h14c0.6,0,1,0.4,1,1V17z M23.9,9c0,0.6-0.4,1-1,1h-14c-0.6,0-1-0.4-1-1V7c0-0.6,0.4-1,1-1h14c0.6,0,1,0.4,1,1V9z"/>
</svg>
